<?xml version="1.0" encoding="UTF-8" standalone="no"?>
<!-- Created with Inkscape (http://www.inkscape.org/) -->

<svg
   xmlns:dc="http://purl.org/dc/elements/1.1/"
   xmlns:cc="http://creativecommons.org/ns#"
   xmlns:rdf="http://www.w3.org/1999/02/22-rdf-syntax-ns#"
   xmlns:svg="http://www.w3.org/2000/svg"
   xmlns="http://www.w3.org/2000/svg"
   xmlns:sodipodi="http://sodipodi.sourceforge.net/DTD/sodipodi-0.dtd"
   xmlns:inkscape="http://www.inkscape.org/namespaces/inkscape"
   sodipodi:docname="flatten_pseudocode.svg"
   inkscape:version="0.47pre4 r22446"
   version="1.1"
   id="svg2"
   height="1052.3622047"
   width="744.09448819">
  <sodipodi:namedview
     id="base"
     pagecolor="#ffffff"
     bordercolor="#666666"
     borderopacity="1.0"
     inkscape:pageopacity="0.0"
     inkscape:pageshadow="2"
     inkscape:zoom="0.7"
     inkscape:cx="215.08492"
     inkscape:cy="417.34138"
     inkscape:document-units="px"
     inkscape:current-layer="layer1"
     showgrid="false"
     inkscape:window-width="1280"
     inkscape:window-height="750"
     inkscape:window-x="-1"
     inkscape:window-y="0"
     inkscape:window-maximized="1" />
  <defs
     id="defs4">
    <marker
       style="overflow:visible"
       id="CurveIn"
       refX="0.0"
       refY="0.0"
       orient="auto"
       inkscape:stockid="CurveIn">
      <path
         transform="scale(0.6)"
         style="fill-rule:evenodd;stroke:#000000;stroke-width:1.0pt;marker-start:none;marker-end:none;fill:none"
         d="M 4.6254930,-5.0456926 C 1.8654930,-5.0456926 -0.37450702,-2.8056926 -0.37450702,-0.045692580 C -0.37450702,2.7143074 1.8654930,4.9543074 4.6254930,4.9543074"
         id="path3807" />
    </marker>
    <marker
       style="overflow:visible"
       id="Torso"
       refX="0.0"
       refY="0.0"
       orient="auto"
       inkscape:stockid="Torso">
      <g
         transform="scale(0.7)"
         id="g3835">
        <path
           style="fill:none;fill-opacity:0.75000000;fill-rule:evenodd;stroke:#000000;stroke-width:1.2500000;marker-start:none;marker-mid:none;marker-end:none"
           d="M -4.7792281,-3.2395420 C -2.4288541,-2.8736027 0.52103922,-1.3019943 0.25792722,0.38794346 C -0.0051877922,2.0778819 -2.2126741,2.6176539 -4.5630471,2.2517169 C -6.9134221,1.8857769 -8.5210350,0.75201414 -8.2579220,-0.93792336 C -7.9948090,-2.6278615 -7.1296041,-3.6054813 -4.7792281,-3.2395420 z "
           id="path3837" />
        <path
           style="fill:none;fill-opacity:0.75000000;fill-rule:evenodd;stroke:#000000;stroke-width:1.0000000pt;marker-end:none"
           d="M 4.4598789,0.088665736 C -2.5564571,-4.3783320 5.2248769,-3.9061806 -0.84829578,-8.7197331"
           id="path3839" />
        <path
           style="fill:none;fill-opacity:0.75000000;fill-rule:evenodd;stroke:#000000;stroke-width:1.0000000pt;marker-start:none;marker-end:none"
           d="M 4.9298719,0.057520736 C -1.3872731,1.7494689 1.8027579,5.4782079 -4.9448731,7.5462725"
           id="path3841" />
        <rect
           style="fill-rule:evenodd;stroke-width:1.0000000pt;marker-end:none"
           width="2.6366582"
           height="2.7608147"
           x="-10.391706"
           y="-1.7408575"
           transform="matrix(0.527536,-0.849533,0.887668,0.460484,0,0)"
           id="rect3843" />
        <rect
           style="fill-rule:evenodd;stroke-width:1.0000000pt;marker-end:none"
           width="2.7327356"
           height="2.8614161"
           x="4.9587269"
           y="-7.9629307"
           transform="matrix(0.671205,-0.741272,0.790802,0.612072,0,0)"
           id="rect3845" />
        <path
           sodipodi:type="arc"
           style="fill:#ff0000;fill-opacity:0.75000000;fill-rule:evenodd;stroke:#000000;stroke-width:1.0000000pt;marker-start:none;marker-end:none"
           sodipodi:cx="16.172634"
           sodipodi:cy="-28.685045"
           sodipodi:rx="0.60731727"
           sodipodi:ry="0.60731727"
           d="m 16.779951,-28.685045 c 0,0.335412 -0.271905,0.607317 -0.607317,0.607317 -0.335412,0 -0.607317,-0.271905 -0.607317,-0.607317 0,-0.335412 0.271905,-0.607318 0.607317,-0.607318 0.335412,0 0.607317,0.271906 0.607317,0.607318 z"
           transform="matrix(0,-1.109517,1.109517,0,25.96648,19.71619)"
           id="path3847" />
        <path
           sodipodi:type="arc"
           style="fill:#ff0000;fill-opacity:0.75000000;fill-rule:evenodd;stroke:#000000;stroke-width:1.0000000pt;marker-start:none;marker-end:none"
           sodipodi:cx="16.172634"
           sodipodi:cy="-28.685045"
           sodipodi:rx="0.60731727"
           sodipodi:ry="0.60731727"
           d="m 16.779951,-28.685045 c 0,0.335412 -0.271905,0.607317 -0.607317,0.607317 -0.335412,0 -0.607317,-0.271905 -0.607317,-0.607317 0,-0.335412 0.271905,-0.607318 0.607317,-0.607318 0.335412,0 0.607317,0.271906 0.607317,0.607318 z"
           transform="matrix(0,-1.109517,1.109517,0,26.82450,16.99126)"
           id="path3849" />
      </g>
    </marker>
    <marker
       style="overflow:visible;"
       id="Arrow2Send"
       refX="0.0"
       refY="0.0"
       orient="auto"
       inkscape:stockid="Arrow2Send">
      <path
         transform="scale(0.3) rotate(180) translate(-2.3,0)"
         d="M 8.7185878,4.0337352 L -2.2072895,0.016013256 L 8.7185884,-4.0017078 C 6.9730900,-1.6296469 6.9831476,1.6157441 8.7185878,4.0337352 z "
         style="font-size:12.0;fill-rule:evenodd;stroke-width:0.62500000;stroke-linejoin:round;"
         id="path3655" />
    </marker>
    <marker
       style="overflow:visible;"
       id="Arrow2Mend"
       refX="0.0"
       refY="0.0"
       orient="auto"
       inkscape:stockid="Arrow2Mend">
      <path
         transform="scale(0.6) rotate(180) translate(0,0)"
         d="M 8.7185878,4.0337352 L -2.2072895,0.016013256 L 8.7185884,-4.0017078 C 6.9730900,-1.6296469 6.9831476,1.6157441 8.7185878,4.0337352 z "
         style="font-size:12.0;fill-rule:evenodd;stroke-width:0.62500000;stroke-linejoin:round;"
         id="path3649" />
    </marker>
    <inkscape:perspective
       id="perspective10"
       inkscape:persp3d-origin="372.04724 : 350.78739 : 1"
       inkscape:vp_z="744.09448 : 526.18109 : 1"
       inkscape:vp_y="0 : 1000 : 0"
       inkscape:vp_x="0 : 526.18109 : 1"
       sodipodi:type="inkscape:persp3d" />
  </defs>
  <metadata
     id="metadata7">
    <rdf:RDF>
      <cc:Work
         rdf:about="">
        <dc:format>image/svg+xml</dc:format>
        <dc:type
           rdf:resource="http://purl.org/dc/dcmitype/StillImage" />
        <dc:title />
      </cc:Work>
    </rdf:RDF>
  </metadata>
  <g
     id="layer1"
     inkscape:groupmode="layer"
     inkscape:label="Layer 1">
    <path
       transform="translate(20.53571,-20.178571)"
       d="m 301.02547,150.80104 a 135.36044,72.225906 0 1 1 -270.720889,0 135.36044,72.225906 0 1 1 270.720889,0 z"
       sodipodi:ry="72.225906"
       sodipodi:rx="135.36044"
       sodipodi:cy="150.80104"
       sodipodi:cx="165.66502"
       id="path2816"
       style="fill:#fcaf3e;fill-opacity:1;fill-rule:nonzero;stroke:#f57900;stroke-width:4;stroke-miterlimit:4;stroke-dasharray:none"
       sodipodi:type="arc" />
    <g
       style="opacity:0.5"
       id="g11159">
      <path
         style="stroke-linejoin:round;opacity:1;stroke-opacity:1;fill-opacity:1;stroke-dashoffset:0;stroke:#f57900;stroke-linecap:round;stroke-miterlimit:4;stroke-width:3.99999995200000003;fill:#fcaf3e"
         d="M336.823432 178.821844C336.823432 197.284578 313.622456 212.251542 285.002616 212.251542C285.002428719 212.251542 285.002241439 212.251541999 285.00205416 212.251541997C256.38245236 212.25139846 233.18178 197.284489467 233.18178 178.821844C233.18178 178.821795704 233.18178 178.821747407 233.181780001 178.821699111C233.181881099 160.359057696 256.382818356 145.3921444 285.002616 145.3921444C285.002678356 145.3921444 285.002740712 145.3921444 285.002803068 145.3921444C313.622557099 145.392222704 336.823432 160.359184296 336.823432 178.821844C336.823432 178.821844 336.823432 178.821844 336.823432 178.821844"
         id="path11161" />
      <path
         style="stroke-linejoin:round;opacity:1;stroke-opacity:1;fill-opacity:1;stroke-dashoffset:0;stroke:#f57900;stroke-linecap:round;stroke-miterlimit:4;stroke-width:3.99999990400000005;fill:#fcaf3e"
         d="M427.169644 181.083768C427.169644 210.756636 393.204862 234.811184 351.307202 234.811184C351.30706154 234.811184 351.306921079 234.811183999 351.30678062 234.811183998C309.40928427 234.811076345 275.44473 210.7565696 275.44473 181.083768C275.44473 181.083671407 275.44473 181.083574814 275.444730001 181.083478221C275.444932198 151.410785392 309.409636712 127.3563488 351.307202 127.3563488C351.307326712 127.3563488 351.307451423 127.3563488 351.307576135 127.356348801C393.205064197 127.356505408 427.169644 151.411038593 427.169644 181.083768C427.169644 181.083768 427.169644 181.083768 427.169644 181.083768"
         id="path11163" />
      <path
         style="stroke-linejoin:round;opacity:1;stroke-opacity:1;fill-opacity:1;stroke-dashoffset:0;stroke:#f57900;stroke-linecap:round;stroke-miterlimit:4;stroke-width:3.99999985600000008;fill:#fcaf3e"
         d="M517.515856 183.345692C517.515856 224.228694 472.787268 257.370826 417.611788 257.370826C417.61169436 257.370826 417.61160072 257.370825999 417.61150708 257.370825998C362.43611618 257.37075423 317.70768 224.228649734 317.70768 183.345692C317.70768 183.345547111 317.707680001 183.345402221 317.707680002 183.345257332C317.707983297 142.462513088 362.436455068 109.3205532 417.611788 109.3205532C417.611975068 109.3205532 417.612162135 109.3205532 417.612349203 109.320553201C472.787571296 109.320788113 517.515856 142.462892889 517.515856 183.345692C517.515856 183.345692 517.515856 183.345692 517.515856 183.345692"
         id="path11165" />
      <path
         style="stroke-linejoin:round;opacity:1;stroke-opacity:1;fill-opacity:1;stroke-dashoffset:0;stroke:#f57900;stroke-linecap:round;stroke-miterlimit:4;stroke-width:3.99999980800000010;fill:#fcaf3e"
         d="M607.862068 185.607616C607.862068 237.700752 552.369674 279.930468 483.916374 279.930468C483.91632718 279.930468 483.91628036 279.930468 483.91623354 279.930467999C415.46294809 279.930432115 359.97063 237.700729867 359.97063 185.607616C359.97063 185.607422814 359.970630001 185.607229628 359.970630002 185.607036442C359.971034396 133.514240784 415.463273424 91.2847576 483.916374 91.2847576C483.916623424 91.2847576 483.916872847 91.2847576006 483.91712227 91.2847576018C552.370078395 91.2850708167 607.862068 133.514747186 607.862068 185.607616C607.862068 185.607616 607.862068 185.607616 607.862068 185.607616"
         id="path11167" />
    </g>
    <text
       sodipodi:linespacing="100%"
       id="text3590"
       y="119.57474"
       x="99.197487"
       style="font-size:34.49922942999999975px;font-style:normal;font-variant:normal;font-weight:normal;font-stretch:normal;text-align:start;line-height:100%;writing-mode:lr-tb;text-anchor:start;fill:#2e3436;fill-opacity:1;fill-rule:nonzero;stroke:none;font-family:Alba Super;-inkscape-font-specification:Alba Super"
       xml:space="preserve"><tspan
         y="119.57474"
         x="99.197487"
         id="tspan3592"
         sodipodi:role="line">All Zones</tspan></text>
    <path
       id="path8303"
       d="m 246.47722,176.55992 c 0,7.2526 -12.43717,13.13198 -27.77919,13.13198 -15.34203,0 -27.7792,-5.87938 -27.7792,-13.13198 0,-7.25259 12.43717,-13.13198 27.7792,-13.13198 15.34202,0 27.77919,5.87939 27.77919,13.13198 z"
       style="fill:#fcaf3e;stroke:#f57900;stroke-width:4;stroke-linecap:round;stroke-linejoin:round;stroke-miterlimit:4;stroke-dashoffset:0;stroke-opacity:1;opacity:1" />
    <path
       style="fill:#fcaf3e;stroke:#f57900;stroke-width:3.99999976000000013;stroke-linecap:round;stroke-linejoin:round;stroke-miterlimit:4;stroke-opacity:1;stroke-dashoffset:0"
       d="m 698.20828,187.86954 c 0,63.30327 -66.2562,114.62057 -147.98732,114.62057 -81.73118,0 -147.98738,-51.3173 -147.98738,-114.62057 0,-63.30318 66.2562,-114.620578 147.98738,-114.620578 81.73112,0 147.98732,51.317398 147.98732,114.620578 z"
       id="path8306" />
    <text
       xml:space="preserve"
       style="font-size:34.49922943px;font-style:normal;font-variant:normal;font-weight:normal;font-stretch:normal;text-align:start;line-height:100%;writing-mode:lr-tb;text-anchor:start;fill:#2e3436;fill-opacity:1;fill-rule:nonzero;stroke:none;font-family:Alba Super;-inkscape-font-specification:Alba Super"
       x="459.19748"
       y="139.57474"
       id="text8847"
       sodipodi:linespacing="100%"><tspan
         sodipodi:role="line"
         id="tspan8849"
         x="459.19748"
         y="139.57474">One Zone</tspan></text>
    <path
       id="path8851"
       d="m 658.79938,227.86954 c 0,34.11104 -48.61224,61.76343 -108.57845,61.76343 -59.96625,0 -108.57848,-27.65239 -108.57848,-61.76343 0,-34.11099 48.61223,-61.76343 108.57848,-61.76343 59.96621,0 108.57845,27.65244 108.57845,61.76343 z"
       style="fill:#8ae234;stroke:#4e9a06;stroke-width:3.99999951999999981;stroke-linecap:round;stroke-linejoin:round;stroke-miterlimit:4;stroke-opacity:1;stroke-dashoffset:0" />
    <text
       sodipodi:linespacing="100%"
       id="text8853"
       y="225.57474"
       x="485.19748"
       style="font-size:34.49922943px;font-style:normal;font-variant:normal;font-weight:normal;font-stretch:normal;text-align:start;line-height:100%;writing-mode:lr-tb;text-anchor:start;fill:#2e3436;fill-opacity:1;fill-rule:nonzero;stroke:none;font-family:Alba Super;-inkscape-font-specification:Alba Super"
       xml:space="preserve"><tspan
         y="225.57474"
         x="485.19748"
         id="tspan8855"
         sodipodi:role="line">Its Rules</tspan></text>
    <text
       sodipodi:linespacing="100%"
       id="text8857"
       y="303.505"
       x="84.285713"
       style="font-size:22px;font-style:normal;font-variant:normal;font-weight:normal;font-stretch:normal;text-align:start;line-height:100%;writing-mode:lr-tb;text-anchor:start;fill:#000000;fill-opacity:1;fill-rule:nonzero;stroke:#4e9a06;stroke-width:4;stroke-linecap:round;stroke-linejoin:round;stroke-miterlimit:4;stroke-opacity:1;stroke-dasharray:none;stroke-dashoffset:0;font-family:Andale Mono;-inkscape-font-specification:Andale Mono"
       xml:space="preserve"><tspan
         style="font-size:22px;font-style:normal;font-variant:normal;font-weight:normal;font-stretch:normal;text-align:start;line-height:100%;writing-mode:lr-tb;text-anchor:start;fill:#000000;fill-opacity:1;stroke:none;font-family:Andale Mono;-inkscape-font-specification:Andale Mono"
         y="303.505"
         x="84.285713"
         id="tspan8859"
         sodipodi:role="line">foreach zone</tspan><tspan
         id="tspan8871"
         style="font-size:22px;font-style:normal;font-variant:normal;font-weight:normal;font-stretch:normal;text-align:start;line-height:100%;writing-mode:lr-tb;text-anchor:start;fill:#000000;fill-opacity:1;stroke:none;font-family:Andale Mono;-inkscape-font-specification:Andale Mono"
         y="325.505"
         x="84.285713"
         sodipodi:role="line">  get its rules</tspan></text>
    <path
       style="fill:#8ae234;stroke:#4e9a06;stroke-width:3.99999952;stroke-linecap:round;stroke-linejoin:round;stroke-miterlimit:4;stroke-opacity:1;stroke-dashoffset:0"
       d="m 608.22795,259.86954 c 0,9.08861 -13.43461,16.45638 -30.00704,16.45638 -16.57243,0 -30.00704,-7.36777 -30.00704,-16.45638 0,-9.08861 13.43461,-16.45639 30.00704,-16.45639 16.57243,0 30.00704,7.36778 30.00704,16.45639 z"
       id="path10917" />
    <g
       id="g14587">
      <g
         id="g14668"
         style="opacity:0.39419087">
        <path
           style="opacity:1;fill:#8ae234;fill-opacity:1;stroke:#4e9a06;stroke-width:3.99999951999999981;stroke-linecap:round;stroke-linejoin:round;stroke-miterlimit:4;stroke-opacity:1;stroke-dashoffset:0"
           d="m 615.61335,282.01467 c 0,11.44061 -16.74117,20.71506 -37.39244,20.71506 -2e-5,0 -4e-5,0 -6e-5,0 -20.65124,-2e-5 -37.39238,-9.27446 -37.39238,-20.71506 0,-2e-5 0,-5e-5 0,-7e-5 7e-5,-11.44058 16.74121,-20.715 37.39244,-20.715 2e-5,0 4e-5,0 6e-5,0 20.65125,2e-5 37.39238,9.27447 37.39238,20.71507 0,0 0,0 0,0"
           id="path14601" />
        <path
           style="opacity:1;fill:#8ae234;fill-opacity:1;stroke:#4e9a06;stroke-width:3.99999951999999981;stroke-linecap:round;stroke-linejoin:round;stroke-miterlimit:4;stroke-opacity:1;stroke-dashoffset:0"
           d="m 623.36041,305.24427 c 0,13.9078 -20.20964,25.18229 -45.1395,25.18229 -4e-5,0 -9e-5,0 -1.3e-4,0 -24.9298,-4e-5 -45.13937,-11.27452 -45.13937,-25.18229 0,-5e-5 0,-10e-5 0,-1.5e-4 1.4e-4,-13.90773 20.20973,-25.18215 45.1395,-25.18215 4e-5,0 9e-5,0 1.3e-4,0 24.9298,4e-5 45.13937,11.27453 45.13937,25.1823 0,0 0,0 0,0"
           id="path14599" />
        <path
           style="opacity:1;fill:#8ae234;fill-opacity:1;stroke:#4e9a06;stroke-width:3.99999951999999981;stroke-linecap:round;stroke-linejoin:round;stroke-miterlimit:4;stroke-opacity:1;stroke-dashoffset:0"
           d="m 631.55254,329.80839 c 0,16.51672 -23.87738,29.90615 -53.33163,29.90615 -7e-5,0 -1.3e-4,0 -2e-4,0 -29.45415,-6e-5 -53.33143,-13.38947 -53.33143,-29.90615 0,-8e-5 0,-1.5e-4 0,-2.3e-4 2.2e-4,-16.51661 23.87752,-29.90594 53.33163,-29.90594 7e-5,0 1.3e-4,0 2e-4,0 29.45415,6e-5 53.33143,13.38949 53.33143,29.90617 0,0 0,0 0,0"
           id="path14597" />
        <path
           style="opacity:1;fill:#8ae234;fill-opacity:1;stroke:#4e9a06;stroke-width:3.99999951999999981;stroke-linecap:round;stroke-linejoin:round;stroke-miterlimit:4;stroke-opacity:1;stroke-dashoffset:0"
           d="m 640.31405,356.07981 c 0,19.30696 -27.80004,34.95834 -62.09314,34.95834 -9e-5,0 -1.8e-4,0 -2.7e-4,0 -34.29297,-8e-5 -62.09287,-15.65143 -62.09287,-34.95834 0,-1.1e-4 0,-2.1e-4 0,-3.1e-4 2.9e-4,-19.30683 27.80023,-34.95806 62.09314,-34.95806 9e-5,0 1.8e-4,0 2.7e-4,0 34.29297,8e-5 62.09287,15.65145 62.09287,34.95837 0,0 0,0 0,0"
           id="path14595" />
        <path
           style="opacity:1;fill:#8ae234;fill-opacity:1;stroke:#4e9a06;stroke-width:3.99999951999999981;stroke-linecap:round;stroke-linejoin:round;stroke-miterlimit:4;stroke-opacity:1;stroke-dashoffset:0"
           d="m 649.8469,384.6641 c 0,22.34286 -32.06805,40.45532 -71.62599,40.45532 -1.2e-4,0 -2.4e-4,0 -3.5e-4,0 -39.55778,-1.1e-4 -71.62564,-18.11253 -71.62564,-40.45532 0,-1.4e-4 0,-2.7e-4 0,-4.1e-4 3.8e-4,-22.34268 32.06829,-40.45495 71.62599,-40.45495 1.2e-4,0 2.4e-4,0 3.5e-4,0 39.55779,1.1e-4 71.62564,18.11256 71.62564,40.45536 0,0 0,0 0,0"
           id="path14593" />
        <path
           style="opacity:1;fill:#8ae234;fill-opacity:1;stroke:#4e9a06;stroke-width:3.99999927999999993;stroke-linecap:round;stroke-linejoin:round;stroke-miterlimit:4;stroke-opacity:1;stroke-dashoffset:0"
           d="m 660.52703,416.68848 c 0,25.74412 -36.84971,46.61385 -82.30612,46.61385 -1.5e-4,0 -3e-4,0 -4.4e-4,0 -45.45621,-1.3e-4 -82.30568,-20.86981 -82.30568,-46.61385 0,-1.7e-4 0,-3.4e-4 0,-5.1e-4 4.8e-4,-25.7439 36.85001,-46.61338 82.30612,-46.61338 1.5e-4,0 3e-4,0 4.4e-4,0 45.45621,1.4e-4 82.30568,20.86984 82.30568,46.61389 0,0 0,0 0,0"
           id="path14591" />
        <path
           style="opacity:1;fill:#8ae234;fill-opacity:1;stroke:#4e9a06;stroke-width:3.99999927999999993;stroke-linecap:round;stroke-linejoin:round;stroke-miterlimit:4;stroke-opacity:1;stroke-dashoffset:0"
           d="m 673.2604,454.86955 c 0,29.79928 -42.55062,53.95636 -95.03949,53.95636 -1.8e-4,0 -3.7e-4,0 -5.5e-4,0 -52.48861,-1.7e-4 -95.03894,-24.15719 -95.03894,-53.95636 0,-2.1e-4 0,-4.2e-4 0,-6.3e-4 5.9e-4,-29.799 42.551,-53.95578 95.03949,-53.95578 1.8e-4,0 3.7e-4,0 5.5e-4,0 52.48861,1.7e-4 95.03894,24.15722 95.03894,53.95641 0,0 0,0 0,0"
           id="path14589" />
      </g>
    </g>
    <path
       id="path11235"
       d="m 694.93789,507.86955 c 0,36.70284 -52.25597,66.45636 -116.71698,66.45636 -64.461,0 -116.71698,-29.75352 -116.71698,-66.45636 0,-36.70285 52.25598,-66.45641 116.71698,-66.45641 64.46101,0 116.71698,29.75356 116.71698,66.45641 z"
       style="fill:#8ae234;stroke:#4e9a06;stroke-width:3.99999928;stroke-linecap:round;stroke-linejoin:round;stroke-miterlimit:4;stroke-opacity:1;stroke-dashoffset:0" />
    <text
       sodipodi:linespacing="100%"
       id="text11237"
       y="501.50504"
       x="492"
       style="font-size:34px;font-style:normal;font-variant:normal;font-weight:normal;font-stretch:normal;text-align:start;line-height:100%;writing-mode:lr-tb;text-anchor:start;fill:#030303;fill-opacity:1;fill-rule:nonzero;stroke:none;font-family:Alba Super;-inkscape-font-specification:Alba Super"
       xml:space="preserve"><tspan
         y="501.50504"
         x="492"
         id="tspan11239"
         sodipodi:role="line">One Rule</tspan></text>
    <text
       xml:space="preserve"
       style="font-size:22px;font-style:normal;font-variant:normal;font-weight:normal;font-stretch:normal;text-align:start;line-height:100%;writing-mode:lr-tb;text-anchor:start;fill:#000000;fill-opacity:1;fill-rule:nonzero;stroke:#4e9a06;stroke-width:4;stroke-linecap:round;stroke-linejoin:round;stroke-miterlimit:4;stroke-opacity:1;stroke-dasharray:none;stroke-dashoffset:0;font-family:Andale Mono;-inkscape-font-specification:Andale Mono"
       x="64.285713"
       y="443.505"
       id="text14677"
       sodipodi:linespacing="100%"><tspan
         sodipodi:role="line"
         x="64.285713"
         y="443.505"
         style="font-size:22px;font-style:normal;font-variant:normal;font-weight:normal;font-stretch:normal;text-align:start;line-height:100%;writing-mode:lr-tb;text-anchor:start;fill:#000000;fill-opacity:1;stroke:none;font-family:Andale Mono;-inkscape-font-specification:Andale Mono"
         id="tspan14681">foreach rule and zone</tspan><tspan
         sodipodi:role="line"
         x="64.285713"
         y="465.505"
         style="font-size:22px;font-style:normal;font-variant:normal;font-weight:normal;font-stretch:normal;text-align:start;line-height:100%;writing-mode:lr-tb;text-anchor:start;fill:#000000;fill-opacity:1;stroke:none;font-family:Andale Mono;-inkscape-font-specification:Andale Mono"
         id="tspan14687">  convert datetime to UTC</tspan><tspan
         sodipodi:role="line"
         x="64.285713"
         y="487.505"
         style="font-size:22px;font-style:normal;font-variant:normal;font-weight:normal;font-stretch:normal;text-align:start;line-height:100%;writing-mode:lr-tb;text-anchor:start;fill:#000000;fill-opacity:1;stroke:none;font-family:Andale Mono;-inkscape-font-specification:Andale Mono"
         id="tspan2874">   -using zoneinfo</tspan></text>
    <path
       style="fill:none;stroke:#f57900;stroke-width:10;stroke-linecap:butt;stroke-linejoin:miter;stroke-opacity:1;stroke-miterlimit:4;stroke-dasharray:30,30;stroke-dashoffset:0"
       d="M 447.14286,259.50504 C 439.90168,446.30825 427.1765,614.16673 378.57143,658.07647"
       id="path2876"
       sodipodi:nodetypes="cc" />
    <path
       sodipodi:nodetypes="cc"
       id="path3695"
       d="M 538.57143,546.64789 C 486.40259,543.20247 425.55741,569.59524 400.00001,648.07647"
       style="fill:none;stroke:#4e9a06;stroke-width:10;stroke-linecap:butt;stroke-linejoin:miter;stroke-miterlimit:4;stroke-opacity:1;stroke-dasharray:30, 30;stroke-dashoffset:0" />
  </g>
</svg>
